{
	"asset":{
		"generator":"Khronos glTF Blender I/O v4.2.70",
		"version":"2.0"
	},
	"scene":0,
	"scenes":[
		{
			"name":"Scene",
			"nodes":[
				0,
				1,
				2
			]
		}
	],
	"nodes":[
		{
			"mesh":0,
			"name":"buzzi_float_body",
			"rotation":[
				0.7071068286895752,
				0,
				0,
				0.7071068286895752
			]
		},
		{
			"mesh":1,
			"name":"buzzi_float_metal",
			"rotation":[
				0.7071068286895752,
				0,
				0,
				0.7071068286895752
			]
		},
		{
			"mesh":2,
			"name":"buzzi_float_seating",
			"rotation":[
				0.7071068286895752,
				0,
				0,
				0.7071068286895752
			]
		}
	],
	"materials":[
		{
			"doubleSided":true,
			"name":"Material.001",
			"normalTexture":{
				"index":0
			},
			"pbrMetallicRoughness":{
				"baseColorTexture":{
					"index":1
				},
				"metallicFactor":0.4363636374473572,
				"roughnessFactor":0.5363636612892151
			}
		},
		{
			"doubleSided":true,
			"name":"Material.003",
			"pbrMetallicRoughness":{
				"baseColorFactor":[
					0,
					0,
					0,
					1
				],
				"metallicFactor":0,
				"roughnessFactor":0.5
			}
		},
		{
			"doubleSided":true,
			"name":"Material.002",
			"normalTexture":{
				"index":2
			},
			"pbrMetallicRoughness":{
				"baseColorTexture":{
					"index":3
				},
				"metallicFactor":0,
				"roughnessFactor":0.8181818127632141
			}
		}
	],
	"meshes":[
		{
			"name":"buzzi_float_body",
			"primitives":[
				{
					"attributes":{
						"POSITION":0,
						"NORMAL":1,
						"TEXCOORD_0":2
					},
					"indices":3,
					"material":0
				}
			]
		},
		{
			"name":"buzzi_float_metal",
			"primitives":[
				{
					"attributes":{
						"POSITION":4,
						"NORMAL":5,
						"TEXCOORD_0":6
					},
					"indices":7,
					"material":1
				}
			]
		},
		{
			"name":"buzzi_float_seating",
			"primitives":[
				{
					"attributes":{
						"POSITION":8,
						"NORMAL":9,
						"TEXCOORD_0":10
					},
					"indices":11,
					"material":2
				}
			]
		}
	],
	"textures":[
		{
			"sampler":0,
			"source":0
		},
		{
			"sampler":0,
			"source":1
		},
		{
			"sampler":0,
			"source":2
		},
		{
			"sampler":0,
			"source":3
		}
	],
	"images":[
		{
			"mimeType":"image/jpeg",
			"name":"buzzi-float-body-ash_natural-normal",
			"uri":"buzzi-float-body-ash_natural-normal.jpg"
		},
		{
			"mimeType":"image/jpeg",
			"name":"buzzi-float-body-ash_natural-albedo",
			"uri":"buzzi-float-body-ash_natural-albedo.jpg"
		},
		{
			"mimeType":"image/jpeg",
			"name":"buzzi-float-seat-generic-normal",
			"uri":"buzzi-float-seat-generic-normal.jpg"
		},
		{
			"mimeType":"image/jpeg",
			"name":"buzzi-float-seat-fa_autumn-albedo",
			"uri":"buzzi-float-seat-fa_autumn-albedo.jpg"
		}
	],
	"accessors":[
		{
			"bufferView":0,
			"componentType":5126,
			"count":28269,
			"max":[
				29.11930274963379,
				25.672407150268555,
				-0.2371000051498413
			],
			"min":[
				-29.11933708190918,
				-25.5989990234375,
				-79.50589752197266
			],
			"type":"VEC3"
		},
		{
			"bufferView":1,
			"componentType":5126,
			"count":28269,
			"type":"VEC3"
		},
		{
			"bufferView":2,
			"componentType":5126,
			"count":28269,
			"type":"VEC2"
		},
		{
			"bufferView":3,
			"componentType":5123,
			"count":158472,
			"type":"SCALAR"
		},
		{
			"bufferView":4,
			"componentType":5126,
			"count":5002,
			"max":[
				19.764400482177734,
				21.152599334716797,
				0
			],
			"min":[
				-19.391700744628906,
				-18.030399322509766,
				-44.184200286865234
			],
			"type":"VEC3"
		},
		{
			"bufferView":5,
			"componentType":5126,
			"count":5002,
			"type":"VEC3"
		},
		{
			"bufferView":6,
			"componentType":5126,
			"count":5002,
			"type":"VEC2"
		},
		{
			"bufferView":7,
			"componentType":5123,
			"count":21102,
			"type":"SCALAR"
		},
		{
			"bufferView":8,
			"componentType":5126,
			"count":5276,
			"max":[
				26.537866592407227,
				24.82239532470703,
				-43.58894348144531
			],
			"min":[
				-26.537866592407227,
				-24.514310836791992,
				-79.26969146728516
			],
			"type":"VEC3"
		},
		{
			"bufferView":9,
			"componentType":5126,
			"count":5276,
			"type":"VEC3"
		},
		{
			"bufferView":10,
			"componentType":5126,
			"count":5276,
			"type":"VEC2"
		},
		{
			"bufferView":11,
			"componentType":5123,
			"count":29016,
			"type":"SCALAR"
		}
	],
	"bufferViews":[
		{
			"buffer":0,
			"byteLength":339228,
			"byteOffset":0,
			"target":34962
		},
		{
			"buffer":0,
			"byteLength":339228,
			"byteOffset":339228,
			"target":34962
		},
		{
			"buffer":0,
			"byteLength":226152,
			"byteOffset":678456,
			"target":34962
		},
		{
			"buffer":0,
			"byteLength":316944,
			"byteOffset":904608,
			"target":34963
		},
		{
			"buffer":0,
			"byteLength":60024,
			"byteOffset":1221552,
			"target":34962
		},
		{
			"buffer":0,
			"byteLength":60024,
			"byteOffset":1281576,
			"target":34962
		},
		{
			"buffer":0,
			"byteLength":40016,
			"byteOffset":1341600,
			"target":34962
		},
		{
			"buffer":0,
			"byteLength":42204,
			"byteOffset":1381616,
			"target":34963
		},
		{
			"buffer":0,
			"byteLength":63312,
			"byteOffset":1423820,
			"target":34962
		},
		{
			"buffer":0,
			"byteLength":63312,
			"byteOffset":1487132,
			"target":34962
		},
		{
			"buffer":0,
			"byteLength":42208,
			"byteOffset":1550444,
			"target":34962
		},
		{
			"buffer":0,
			"byteLength":58032,
			"byteOffset":1592652,
			"target":34963
		}
	],
	"samplers":[
		{
			"magFilter":9729,
			"minFilter":9987
		}
	],
	"buffers":[
		{
			"byteLength":1650684,
			"uri":"buzzi-float-blender-export-v2.bin"
		}
	]
}
