{
	"asset":{
		"generator":"Khronos glTF Blender I/O v4.2.70",
		"version":"2.0"
	},
	"scene":0,
	"scenes":[
		{
			"name":"Scene",
			"nodes":[
				0,
				1,
				2,
				3
			]
		}
	],
	"nodes":[
		{
			"mesh":0,
			"name":"BuzziFloat_Body.001",
			"rotation":[
				0.7071068286895752,
				0,
				0,
				0.7071068286895752
			]
		},
		{
			"mesh":1,
			"name":"BuzziFloat_Leg_base.001",
			"rotation":[
				0.7071068286895752,
				0,
				0,
				0.7071068286895752
			]
		},
		{
			"mesh":2,
			"name":"BuzziFloat_Metal_holder.001",
			"rotation":[
				0.7071068286895752,
				0,
				0,
				0.7071068286895752
			]
		},
		{
			"mesh":3,
			"name":"BuzziFloat_Seat.001",
			"rotation":[
				0.7071068286895752,
				0,
				0,
				0.7071068286895752
			]
		}
	],
	"materials":[
		{
			"doubleSided":true,
			"name":"Material.005",
			"normalTexture":{
				"index":0
			},
			"pbrMetallicRoughness":{
				"baseColorTexture":{
					"index":1
				},
				"metallicFactor":0.40909090638160706,
				"roughnessFactor":0.5
			}
		},
		{
			"doubleSided":true,
			"name":"Material.007",
			"pbrMetallicRoughness":{
				"baseColorFactor":[
					0,
					0,
					0,
					1
				],
				"metallicFactor":0.7272727489471436,
				"roughnessFactor":0.5
			}
		},
		{
			"doubleSided":true,
			"name":"Material.006",
			"pbrMetallicRoughness":{
				"baseColorTexture":{
					"index":2
				},
				"metallicFactor":0,
				"roughnessFactor":0.5
			}
		}
	],
	"meshes":[
		{
			"name":"BuzziFloat_Body.001",
			"primitives":[
				{
					"attributes":{
						"POSITION":0,
						"NORMAL":1,
						"TEXCOORD_0":2
					},
					"indices":3,
					"material":0
				}
			]
		},
		{
			"name":"BuzziFloat_Leg_base.001",
			"primitives":[
				{
					"attributes":{
						"POSITION":4,
						"NORMAL":5,
						"TEXCOORD_0":6
					},
					"indices":7
				}
			]
		},
		{
			"name":"BuzziFloat_Metal_holder.001",
			"primitives":[
				{
					"attributes":{
						"POSITION":8,
						"NORMAL":9,
						"TEXCOORD_0":10
					},
					"indices":11,
					"material":1
				}
			]
		},
		{
			"name":"BuzziFloat_Seat.001",
			"primitives":[
				{
					"attributes":{
						"POSITION":12,
						"NORMAL":13,
						"TEXCOORD_0":14
					},
					"indices":15,
					"material":2
				}
			]
		}
	],
	"textures":[
		{
			"sampler":0,
			"source":0
		},
		{
			"sampler":0,
			"source":1
		},
		{
			"sampler":0,
			"source":2
		}
	],
	"images":[
		{
			"mimeType":"image/png",
			"name":"buzzi-float-bodt-black_wood-bumb",
			"uri":"buzzi-float-bodt-black_wood-bumb.png"
		},
		{
			"mimeType":"image/png",
			"name":"buzzi-float-bodt-black_wood-albedo",
			"uri":"buzzi-float-bodt-black_wood-albedo.png"
		},
		{
			"mimeType":"image/jpeg",
			"name":"buzzi-float-seat-fa_grass-albedo",
			"uri":"buzzi-float-seat-fa_grass-albedo.jpg"
		}
	],
	"accessors":[
		{
			"bufferView":0,
			"componentType":5126,
			"count":12064,
			"max":[
				29.123699188232422,
				25.69059944152832,
				-0.2371000051498413
			],
			"min":[
				-29.123699188232422,
				-25.69059944152832,
				-79.53089904785156
			],
			"type":"VEC3"
		},
		{
			"bufferView":1,
			"componentType":5126,
			"count":12064,
			"type":"VEC3"
		},
		{
			"bufferView":2,
			"componentType":5126,
			"count":12064,
			"type":"VEC2"
		},
		{
			"bufferView":3,
			"componentType":5123,
			"count":27060,
			"type":"SCALAR"
		},
		{
			"bufferView":4,
			"componentType":5126,
			"count":2400,
			"max":[
				19.731800079345703,
				21.1200008392334,
				0
			],
			"min":[
				-19.35919952392578,
				-17.997800827026367,
				-0.2921000123023987
			],
			"type":"VEC3"
		},
		{
			"bufferView":5,
			"componentType":5126,
			"count":2400,
			"type":"VEC3"
		},
		{
			"bufferView":6,
			"componentType":5126,
			"count":2400,
			"type":"VEC2"
		},
		{
			"bufferView":7,
			"componentType":5123,
			"count":13824,
			"type":"SCALAR"
		},
		{
			"bufferView":8,
			"componentType":5126,
			"count":6048,
			"max":[
				18.297199249267578,
				11.52810001373291,
				-34.127201080322266
			],
			"min":[
				-18.353500366210938,
				-10.15429973602295,
				-44.184200286865234
			],
			"type":"VEC3"
		},
		{
			"bufferView":9,
			"componentType":5126,
			"count":6048,
			"type":"VEC3"
		},
		{
			"bufferView":10,
			"componentType":5126,
			"count":6048,
			"type":"VEC2"
		},
		{
			"bufferView":11,
			"componentType":5123,
			"count":17070,
			"type":"SCALAR"
		},
		{
			"bufferView":12,
			"componentType":5126,
			"count":3402,
			"max":[
				26.565000534057617,
				24.869800567626953,
				-43.32350158691406
			],
			"min":[
				-26.565000534057617,
				-24.56839942932129,
				-79.28700256347656
			],
			"type":"VEC3"
		},
		{
			"bufferView":13,
			"componentType":5126,
			"count":3402,
			"type":"VEC3"
		},
		{
			"bufferView":14,
			"componentType":5126,
			"count":3402,
			"type":"VEC2"
		},
		{
			"bufferView":15,
			"componentType":5123,
			"count":4956,
			"type":"SCALAR"
		}
	],
	"bufferViews":[
		{
			"buffer":0,
			"byteLength":144768,
			"byteOffset":0,
			"target":34962
		},
		{
			"buffer":0,
			"byteLength":144768,
			"byteOffset":144768,
			"target":34962
		},
		{
			"buffer":0,
			"byteLength":96512,
			"byteOffset":289536,
			"target":34962
		},
		{
			"buffer":0,
			"byteLength":54120,
			"byteOffset":386048,
			"target":34963
		},
		{
			"buffer":0,
			"byteLength":28800,
			"byteOffset":440168,
			"target":34962
		},
		{
			"buffer":0,
			"byteLength":28800,
			"byteOffset":468968,
			"target":34962
		},
		{
			"buffer":0,
			"byteLength":19200,
			"byteOffset":497768,
			"target":34962
		},
		{
			"buffer":0,
			"byteLength":27648,
			"byteOffset":516968,
			"target":34963
		},
		{
			"buffer":0,
			"byteLength":72576,
			"byteOffset":544616,
			"target":34962
		},
		{
			"buffer":0,
			"byteLength":72576,
			"byteOffset":617192,
			"target":34962
		},
		{
			"buffer":0,
			"byteLength":48384,
			"byteOffset":689768,
			"target":34962
		},
		{
			"buffer":0,
			"byteLength":34140,
			"byteOffset":738152,
			"target":34963
		},
		{
			"buffer":0,
			"byteLength":40824,
			"byteOffset":772292,
			"target":34962
		},
		{
			"buffer":0,
			"byteLength":40824,
			"byteOffset":813116,
			"target":34962
		},
		{
			"buffer":0,
			"byteLength":27216,
			"byteOffset":853940,
			"target":34962
		},
		{
			"buffer":0,
			"byteLength":9912,
			"byteOffset":881156,
			"target":34963
		}
	],
	"samplers":[
		{
			"magFilter":9729,
			"minFilter":9987
		}
	],
	"buffers":[
		{
			"byteLength":891068,
			"uri":"buzzi-float-blender-export.bin"
		}
	]
}
